<svg width="147" height="263" viewBox="0 0 147 263" fill="none" xmlns="http://www.w3.org/2000/svg">
<path d="M125.121 192.564C139.511 144.084 135.784 106.929 135.784 106.929C132.108 62.0175 94.5107 -10.404 42.6605 6.48646C23.3891 12.7643 17.0382 31.306 19.2634 52.9435C20.8317 68.1942 53.3865 95.0211 67.6604 116.008C75.3098 127.255 80.3997 136.954 83.0864 147.637C86.0863 159.565 85.5828 156.974 88.0481 172.284C92.3699 199.123 81.5333 258.779 81.5333 258.779C81.5333 258.779 116.614 221.224 125.121 192.564Z" fill="url(#paint0_linear_203_33)"/>
<path d="M57.7582 46.5301C56.4449 42.4005 56.8 39.4416 59.5875 36.6734C62.375 33.9051 65.6802 33.192 70.5267 33.8498C76.8457 34.7074 79.422 38.1008 84.6938 43.0967C89.9656 48.0927 97.3414 61.1558 98.1186 69.9568C98.4597 73.8203 96.9978 76.9292 92.9179 78.3376C86.443 80.5729 73.6985 62.1098 69.2353 57.6445C64.839 53.246 59.4195 51.7537 57.7582 46.5301Z" fill="#D9D9D9" fill-opacity="0.26"/>
<defs>
<linearGradient id="paint0_linear_203_33" x1="80.295" y1="71.2911" x2="111.526" y2="190.26" gradientUnits="userSpaceOnUse">
<stop offset="0.0452216" stop-color="#289758"/>
<stop offset="1" stop-color="#9CE074"/>
</linearGradient>
</defs>
</svg>
